<?xml version="1.0" encoding="UTF-8"?>
<svg id="_レイヤー_1" data-name="レイヤー_1" xmlns="http://www.w3.org/2000/svg" version="1.1" viewBox="0 0 247.68 253.73">
  <!-- Generator: Adobe Illustrator 30.2.1, SVG Export Plug-In . SVG Version: 2.1.1 Build 1)  -->
  <path d="M129.16,231.56H19.95c-11.18,0-20.28-9.13-20.28-20.36V19.91C-.33,8.69,8.77-.44,19.95-.44h130.27c1.06,0,2.08.42,2.83,1.18l35.44,35.6c.75.75,1.17,1.76,1.17,2.82v30.39c0,2.21-1.79,4-4,4s-4-1.79-4-4v-28.74L148.56,7.56H19.95c-6.77,0-12.28,5.54-12.28,12.36v191.28c0,6.81,5.51,12.36,12.28,12.36h109.21c2.21,0,4,1.79,4,4s-1.79,4-4,4Z" fill="#142235"/>
  <path d="M150.27,9.46l29.5,29.5c-.19.06-.39.09-.59.09h-27c-1.08,0-2-.92-2-2V10.05c0-.21.03-.4.09-.59M152.17.05c-5.5,0-10,4.5-10,10v27c0,5.5,4.5,10,10,10h27c5.5,0,10-4.5,10-10L152.17.05h0Z" fill="#142235"/>
  <path d="M191.35,253.29c-30.88,0-56-25.12-56-56s25.12-56,56-56c11.68,0,22.88,3.56,32.38,10.3,1.8,1.28,2.23,3.78.95,5.58-1.28,1.8-3.77,2.23-5.58.95-8.13-5.77-17.73-8.83-27.74-8.83-26.47,0-48,21.53-48,48s21.53,48,48,48,48-21.53,48-48c0-5.71-.99-11.29-2.94-16.6-.76-2.07.3-4.37,2.37-5.14,2.07-.76,4.37.3,5.14,2.37,2.28,6.19,3.44,12.71,3.44,19.36,0,30.88-25.12,56-56,56Z" fill="#142235"/>
  <g>
    <path d="M47.03,126.39h-15c-2.21,0-4-1.79-4-4s1.79-4,4-4h15c2.21,0,4,1.79,4,4s-1.79,4-4,4Z" fill="#142235"/>
    <path d="M95.63,126.39h-30c-2.21,0-4-1.79-4-4s1.79-4,4-4h30c2.21,0,4,1.79,4,4s-1.79,4-4,4Z" fill="#142235"/>
  </g>
  <g>
    <path d="M47.03,93.64h-15c-2.21,0-4-1.79-4-4s1.79-4,4-4h15c2.21,0,4,1.79,4,4s-1.79,4-4,4Z" fill="#142235"/>
    <path d="M130.63,93.64h-65c-2.21,0-4-1.79-4-4s1.79-4,4-4h65c2.21,0,4,1.79,4,4s-1.79,4-4,4Z" fill="#142235"/>
  </g>
  <g>
    <path d="M47.03,61.74h-15c-2.21,0-4-1.79-4-4s1.79-4,4-4h15c2.21,0,4,1.79,4,4s-1.79,4-4,4Z" fill="#142235"/>
    <path d="M130.63,61.74h-65c-2.21,0-4-1.79-4-4s1.79-4,4-4h65c2.21,0,4,1.79,4,4s-1.79,4-4,4Z" fill="#142235"/>
  </g>
  <g>
    <path d="M53.55,162.21h14c2.21,0,4,1.79,4,4v26.93h-22v-26.93c0-2.21,1.79-4,4-4Z" fill="#a48a57"/>
    <path d="M85.83,149.14h14c2.21,0,4,1.79,4,4v40h-22v-40c0-2.21,1.79-4,4-4Z" fill="#a48a57"/>
    <path d="M136.11,135.14c0-2.2-1.8-4-4-4h-14c-2.2,0-4,1.8-4,4v58h13.39c.66-10.23,3.71-19.79,8.61-28.15v-29.85Z" fill="#a48a57"/>
    <path d="M168.39,112.14c0-2.2-1.8-4-4-4h-14c-2.2,0-4,1.8-4,4v39.62c6.22-6.14,13.69-11.01,22-14.2v-25.41Z" fill="#a48a57"/>
    <path d="M200.67,133.97v-48.84c0-2.2-1.8-4-4-4h-14c-2.2,0-4,1.8-4,4v49.41c4.1-.82,8.34-1.26,12.68-1.26,3.17,0,6.28.24,9.32.68Z" fill="#a48a57"/>
  </g>
  <path d="M136.03,197.14H31.03c-2.21,0-4-1.79-4-4s1.79-4,4-4h105c2.21,0,4,1.79,4,4s-1.79,4-4,4Z" fill="#142235"/>
  <path d="M186.48,217.05c-1.07,0-2.1-.43-2.85-1.19l-21.46-21.76c-1.55-1.57-1.53-4.11.04-5.66,1.57-1.55,4.1-1.53,5.66.04l18.6,18.87,46.25-47.2c1.55-1.58,4.08-1.6,5.66-.06,1.58,1.55,1.6,4.08.06,5.66l-49.1,50.11c-.75.77-1.78,1.2-2.85,1.2h0Z" fill="#142235"/>
</svg>