<?xml version="1.0" encoding="UTF-8"?>
<svg id="_レイヤー_1" data-name="レイヤー_1" xmlns="http://www.w3.org/2000/svg" version="1.1" viewBox="0 0 240 240">
  <!-- Generator: Adobe Illustrator 30.2.1, SVG Export Plug-In . SVG Version: 2.1.1 Build 1)  -->
  <g>
    <rect x="4.36" y="3.99" width="232" height="232" rx="30.84" ry="30.84" fill="#f8f9fa"/>
    <path d="M205.52,7.99c14.8,0,26.84,12.04,26.84,26.84v170.32c0,14.8-12.04,26.84-26.84,26.84H35.2c-14.8,0-26.84-12.04-26.84-26.84V34.83c0-14.8,12.04-26.84,26.84-26.84h170.32M205.52,0H35.2C15.99,0,.36,15.62.36,34.83v170.32c0,19.21,15.63,34.84,34.84,34.84h170.32c19.21,0,34.84-15.63,34.84-34.84V34.83C240.36,15.62,224.73,0,205.52,0h0Z"/>
  </g>
  <g id="mail_x5F_01a">
    <path d="M172.36,175.99h-104c-9.37,0-17-7.63-17-17v-78c0-9.37,7.63-17,17-17h104c9.37,0,17,7.63,17,17v78c0,9.37-7.63,17-17,17ZM68.36,71.99c-4.96,0-9,4.04-9,9v78c0,4.96,4.04,9,9,9h104c4.96,0,9-4.04,9-9v-78c0-4.96-4.04-9-9-9h-104Z" fill="#142235"/>
    <path d="M120.36,130.49c-.8,0-1.6-.24-2.29-.72l-65-45.5c-1.81-1.27-2.25-3.76-.98-5.57,1.27-1.81,3.76-2.25,5.57-.98l62.71,43.89,62.71-43.89c1.81-1.27,4.3-.83,5.57.98,1.27,1.81.83,4.3-.98,5.57l-65,45.5c-.69.48-1.49.72-2.29.72Z" fill="#142235"/>
  </g>
</svg>