<?xml version="1.0" encoding="UTF-8"?>
<svg id="_レイヤー_1" data-name="レイヤー_1" xmlns="http://www.w3.org/2000/svg" version="1.1" viewBox="0 0 317.17 307.48">
  <!-- Generator: Adobe Illustrator 30.2.1, SVG Export Plug-In . SVG Version: 2.1.1 Build 1)  -->
  <path d="M204.13,229.58c-.36,0-.72-.05-1.08-.15-2.13-.6-3.37-2.8-2.77-4.93l6.69-23.9c.17-.62.49-1.18.93-1.65l10.35-11.11c1.5-1.61,4.04-1.71,5.65-.2,1.62,1.51,1.71,4.04.2,5.65l-9.69,10.39-6.43,22.96c-.5,1.77-2.1,2.92-3.85,2.92Z" fill="#142235"/>
  <path d="M223.14,258.76c-1.75,0-3.35-1.16-3.85-2.92l-14.61-52.15-9.69-10.39c-1.51-1.62-1.42-4.15.2-5.65,1.62-1.51,4.15-1.42,5.65.2l10.35,11.11c.44.47.75,1.03.93,1.65l14.87,53.08c.6,2.13-.65,4.33-2.77,4.93-.36.1-.72.15-1.08.15Z" fill="#142235"/>
  <g>
    <path d="M305.21,260.46h-85c-2.21,0-4-1.79-4-4s1.79-4,4-4h85c2.04,0,2.8,0,3.59-4.59.6-3.48-3.1-20.54-5.55-31.82-.85-3.9-1.66-7.65-2.33-10.93-2.2-10.72-13.17-14.56-23.78-18.27-1.5-.53-2.97-1.04-4.38-1.56-11.8-4.38-38.17-18.64-39.29-19.24-1.94-1.05-2.66-3.48-1.61-5.42,1.05-1.94,3.48-2.66,5.42-1.61.27.15,26.99,14.6,38.26,18.78,1.36.5,2.78,1,4.24,1.51,11.52,4.03,25.86,9.05,28.97,24.21.67,3.25,1.47,6.97,2.31,10.84,3.91,18.04,6.42,30.22,5.62,34.88-.9,5.23-3.02,11.23-11.47,11.23Z" fill="#a48a57"/>
    <path d="M158.2,179.65c-1.49,0-2.91-.83-3.6-2.26-.96-1.99-.13-4.38,1.86-5.34,11.82-5.71,25.22-12.97,25.35-13.04,1.94-1.05,4.37-.33,5.42,1.61,1.05,1.94.33,4.37-1.61,5.42-.14.07-13.7,7.41-25.68,13.21-.56.27-1.15.4-1.74.4Z" fill="#a48a57"/>
    <path d="M180.97,219.8c-1.61,0-3.12-.98-3.73-2.57l-16.64-43.29c-.79-2.06.24-4.38,2.3-5.17,2.07-.79,4.38.24,5.17,2.3l16.64,43.29c.79,2.06-.24,4.38-2.3,5.17-.47.18-.96.27-1.43.27Z" fill="#a48a57"/>
    <path d="M223.14,258.76c-.48,0-.96-.09-1.43-.27-2.06-.79-3.09-3.11-2.3-5.17l31.62-82.26c.79-2.06,3.1-3.09,5.17-2.3,2.06.79,3.09,3.11,2.3,5.17l-31.62,82.26c-.61,1.59-2.13,2.57-3.73,2.57Z" fill="#a48a57"/>
  </g>
  <path d="M183.71,166.53c-2.21,0-4-1.79-4-4v-25.98c0-2.21,1.79-4,4-4s4,1.79,4,4v25.98c0,2.21-1.79,4-4,4Z" fill="#142235"/>
  <path d="M235.16,202.73c-.78,0-1.57-.23-2.26-.71l-52.01-35.82c-1.82-1.25-2.28-3.74-1.03-5.56,1.25-1.82,3.75-2.28,5.56-1.03l52.01,35.82c1.82,1.25,2.28,3.74,1.03,5.56-.78,1.13-2.03,1.73-3.3,1.73Z" fill="#142235"/>
  <path d="M235.38,166.53c-2.21,0-4-1.79-4-4v-25.98c0-2.21,1.79-4,4-4s4,1.79,4,4v25.98c0,2.21-1.79,4-4,4Z" fill="#142235"/>
  <path d="M183.93,202.73c-1.27,0-2.52-.6-3.3-1.73-1.25-1.82-.79-4.31,1.03-5.56l52.01-35.82c1.82-1.25,4.31-.79,5.56,1.03,1.25,1.82.79,4.31-1.03,5.56l-52.01,35.82c-.69.48-1.48.71-2.26.71Z" fill="#142235"/>
  <path d="M209.54,153.3c-.35,0-.69-.05-1.03-.14-8.36-2.23-19.93-6.43-27.56-13.72-12.82-12.24-15.17-19.13-15.17-28.31,0-2.21,1.79-4,4-4s4,1.79,4,4c0,6.28.88,11.25,12.69,22.52,6.12,5.84,15.72,9.44,23.07,11.49,7.35-2.05,16.95-5.65,23.07-11.49,11.81-11.27,12.69-16.23,12.69-22.52,0-1.35.56-2.65,1.68-3.39,1.11-.73,2.39-.91,3.61-.4.58.15,2.89.45,5.29-2.75,4.08-5.44,5.86-18.11,4.2-20.6-1.99-2.98-3.86-3.61-3.94-3.63.09.03.14.04.14.04l1.83-7.79c.79.19,4.92,1.4,8.62,6.95,4.49,6.74.4,23.37-4.46,29.84-2.9,3.87-6.28,5.46-9.19,5.9-.79,7.29-4.15,13.82-14.96,24.14-7.64,7.29-19.2,11.48-27.56,13.72-.34.09-.69.14-1.03.14Z" fill="#142235"/>
  <path d="M248.77,98.53c-.3,0-.6-.03-.91-.11-3.36-.81-3.22-4.08-3.12-6.47.08-1.96.34-3.72.71-5.32.06-8.96-1.28-23.92-7.71-31.2-4.7,3.86-14.81,10.59-28.17,10.59-.15,0-.31,0-.46,0h-.37c-6.79-.09-27.44-.33-33.34,7.74-.72.99-1.18,2.06-1.41,3.28-.41,2.17-2.49,3.61-4.67,3.2-2.17-.41-3.6-2.5-3.2-4.67.45-2.38,1.39-4.58,2.81-6.52,8.33-11.41,30.45-11.14,39.89-11.03h.37c.12,0,.24,0,.36,0,14.83,0,25.17-10.61,25.27-10.72,1.38-1.44,3.6-1.65,5.22-.5,8.17,5.81,11.57,17.59,12.78,28.19.77-.57,1.5-1.01,2.14-1.35,4.23-16.28,3.77-28.57-1.37-35.6-4.34-5.95-10.65-6.27-10.92-6.28-2.04-.08-3.73-1.7-3.86-3.74-.74-11.56-15.86-20.74-33-20.01-19.24.8-44.32,19.53-43.6,37.58.12,2.96.27,5.84.45,8.56.14,2.2-1.53,4.11-3.73,4.25-2.21.14-4.11-1.53-4.25-3.73-.18-2.79-.34-5.74-.46-8.77C153.31,22.77,182.12.97,205.48,0c20.29-.84,37.75,9.8,40.87,24.26,3.58.83,9.24,3.04,13.58,8.88,7.03,9.46,7.79,24.41,2.26,44.43-.37,1.34-1.4,2.39-2.74,2.78-.49.16-4.49,1.68-6.09,7.64-.13,4.35-.56,7.44-.89,8.16-.67,1.46-2.15,2.39-3.71,2.39Z" fill="#142235"/>
  <g>
    <path d="M120.55,305.74c-1.75,0-3.35-1.16-3.85-2.92l-14.61-52.15-9.69-10.39c-1.51-1.62-1.42-4.15.2-5.65,1.62-1.51,4.15-1.42,5.65.2l10.35,11.11c.44.47.75,1.03.93,1.65l14.87,53.08c.6,2.13-.65,4.33-2.77,4.93-.36.1-.72.15-1.08.15Z" fill="#a48a57"/>
    <path d="M93.36,305.74c-.36,0-.72-.05-1.08-.15-2.13-.6-3.37-2.8-2.77-4.93l14.87-53.08c.17-.62.49-1.18.93-1.65l10.35-11.11c1.51-1.62,4.04-1.71,5.65-.2,1.62,1.51,1.7,4.04.2,5.65l-9.69,10.39-14.61,52.15c-.49,1.77-2.1,2.92-3.85,2.92Z" fill="#a48a57"/>
  </g>
  <path d="M202.62,307.43h-116.89c-2.21,0-4-1.79-4-4s1.79-4,4-4h116.89c2.04,0,2.8,0,3.59-4.59.6-3.48-3.1-20.53-5.55-31.82-.85-3.9-1.66-7.65-2.33-10.93-2.2-10.72-13.17-14.56-23.78-18.27-1.5-.53-2.97-1.04-4.37-1.56-11.8-4.38-38.17-18.64-39.29-19.24-1.29-.7-2.09-2.05-2.09-3.52v-25.98c0-2.21,1.79-4,4-4s4,1.79,4,4v23.58c6.55,3.5,26.75,14.16,36.17,17.65,1.36.5,2.78,1,4.23,1.51,11.52,4.03,25.86,9.05,28.97,24.21.67,3.25,1.47,6.97,2.31,10.84,3.91,18.04,6.42,30.21,5.62,34.88-.9,5.23-3.02,11.23-11.47,11.23Z" fill="#142235"/>
  <path d="M120.55,305.74c-.48,0-.96-.09-1.43-.27-2.06-.79-3.09-3.11-2.3-5.17l31.62-82.26c.79-2.06,3.1-3.09,5.17-2.3,2.06.79,3.09,3.11,2.3,5.17l-31.62,82.26c-.61,1.59-2.13,2.57-3.73,2.57Z" fill="#142235"/>
  <path d="M81.34,249.7c-1.27,0-2.52-.6-3.3-1.73-1.25-1.82-.79-4.31,1.03-5.56l52.01-35.82c1.82-1.25,4.31-.79,5.56,1.03,1.25,1.82.79,4.31-1.03,5.56l-52.01,35.82c-.69.48-1.48.71-2.27.71Z" fill="#142235"/>
  <path d="M128.18,307.43H11.29c-8.45,0-10.57-6-11.47-11.23-.8-4.66,1.7-16.84,5.62-34.88.84-3.87,1.65-7.59,2.31-10.84,3.11-15.17,17.45-20.18,28.98-24.21,1.45-.51,2.87-1,4.23-1.51,9.42-3.49,29.62-14.16,36.17-17.65v-23.58c0-2.21,1.79-4,4-4s4,1.79,4,4v25.98c0,1.47-.8,2.82-2.09,3.52-1.12.6-27.49,14.87-39.29,19.24-1.41.52-2.87,1.04-4.37,1.56-10.61,3.71-21.58,7.55-23.78,18.27-.67,3.28-1.49,7.02-2.33,10.93-2.45,11.29-6.15,28.35-5.55,31.82.79,4.59,1.55,4.59,3.59,4.59h116.89c2.21,0,4,1.79,4,4s-1.79,4-4,4Z" fill="#142235"/>
  <path d="M93.36,305.74c-1.61,0-3.12-.98-3.73-2.57l-31.62-82.26c-.79-2.06.24-4.38,2.3-5.17,2.06-.79,4.38.24,5.17,2.3l31.62,82.26c.79,2.06-.24,4.38-2.3,5.17-.47.18-.96.27-1.43.27Z" fill="#142235"/>
  <path d="M132.57,249.7c-.78,0-1.57-.23-2.27-.71l-52.01-35.82c-1.82-1.25-2.28-3.74-1.03-5.56,1.25-1.82,3.74-2.28,5.56-1.03l52.01,35.82c1.82,1.25,2.28,3.74,1.03,5.56-.78,1.13-2.03,1.73-3.3,1.73Z" fill="#142235"/>
  <path d="M106.95,200.27c-.35,0-.69-.04-1.03-.14-8.36-2.23-19.92-6.43-27.56-13.72-10.82-10.33-14.18-16.85-14.96-24.14-2.91-.44-6.29-2.04-9.19-5.9-4.86-6.48-8.95-23.1-4.46-29.84,3.7-5.55,7.83-6.76,8.62-6.95l1.83,7.79s.05,0,.14-.04c-.08.02-1.96.65-3.94,3.63-.43.65-1.02,3.73-.05,9.12.83,4.64,2.5,9.15,4.25,11.48,2.4,3.2,4.71,2.9,5.29,2.75,1.22-.51,2.5-.33,3.61.4,1.12.74,1.68,2.04,1.68,3.39,0,6.28.88,11.25,12.69,22.52,6.12,5.84,15.72,9.44,23.07,11.49,7.35-2.05,16.95-5.65,23.07-11.49,11.81-11.27,12.69-16.23,12.69-22.52,0-1.35.56-2.65,1.68-3.39,1.11-.73,2.39-.91,3.61-.4.58.14,2.89.45,5.29-2.75,1.75-2.33,3.42-6.84,4.25-11.48.97-5.39.38-8.47-.05-9.12-1.99-2.98-3.86-3.61-3.94-3.63.09.03.14.04.14.04l1.83-7.79c.79.19,4.92,1.4,8.62,6.94,4.49,6.74.4,23.37-4.46,29.84-2.9,3.87-6.28,5.46-9.19,5.9-.79,7.29-4.15,13.82-14.97,24.14-7.64,7.29-19.2,11.48-27.56,13.72-.34.09-.69.14-1.03.14Z" fill="#142235"/>
  <path d="M147.83,147.85c-1.85,0-3.51-1.31-3.93-3.15-.1-.44-.19-2.93.09-6.23-.16-17.31-6.79-33.6-8.89-38.32-27.96-10.77-51.48-.93-54.29.33-8.22,6.2-9.84,23.28-9.77,33.12.38,1.59.63,3.36.71,5.32.1,2.39.25,5.67-3.12,6.47-1.87.45-3.83-.54-4.62-2.29-.33-.72-.76-3.81-.89-8.16-1.6-5.97-5.62-7.48-6.16-7.66-1.44-.42-2.45-1.58-2.74-3.05-5.37-27.39-3.73-44.13,5-51.18,3.83-3.09,8.08-3.49,11.24-3.16,3.88-13.77,20.89-23.75,40.54-22.93,23.36.97,52.18,22.77,51.26,45.89-.85,21.66-3.04,29.99-3.13,30.34-.34,1.27-1.29,2.3-2.53,2.73-2.4.85-4.03,7.23-4.63,12.35,0,.27,0,.54,0,.81,0,5.36,0,8.31-3.72,8.73-.15.02-.3.03-.44.03ZM71.49,140.35h.01-.01ZM61.7,120.7c.59.33,1.26.74,1.97,1.26,1.21-10.61,4.62-22.38,12.78-28.19.17-.12.36-.23.55-.33,1.16-.57,28.83-13.91,62.58-.12.9.37,1.64,1.06,2.07,1.93.3.62,5.51,11.32,8.42,25.68.52-.54,1.09-1.02,1.7-1.44.62-3.25,1.91-11.58,2.52-26.95.71-18.05-24.36-36.78-43.6-37.58-17.18-.72-32.27,8.45-33,20.01-.08,1.3-.79,2.47-1.9,3.15-1.11.68-2.48.78-3.67.27-.15-.06-4.56-1.81-7.9.93-3.34,2.75-8.03,11.78-2.51,41.37Z" fill="#142235"/>
</svg>