<?xml version="1.0" encoding="UTF-8"?>
<svg id="_レイヤー_1" data-name="レイヤー_1" xmlns="http://www.w3.org/2000/svg" version="1.1" viewBox="0 0 240 240">
  <!-- Generator: Adobe Illustrator 30.2.1, SVG Export Plug-In . SVG Version: 2.1.1 Build 1)  -->
  <g>
    <rect x="4.36" y="3.99" width="232" height="232" rx="30.84" ry="30.84" fill="#f8f9fa"/>
    <path d="M205.52,7.99c14.8,0,26.84,12.04,26.84,26.84v170.32c0,14.8-12.04,26.84-26.84,26.84H35.2c-14.8,0-26.84-12.04-26.84-26.84V34.83c0-14.8,12.04-26.84,26.84-26.84h170.32M205.52,0H35.2C15.99,0,.36,15.62.36,34.83v170.32c0,19.21,15.63,34.84,34.84,34.84h170.32c19.21,0,34.84-15.63,34.84-34.84V34.83C240.36,15.62,224.73,0,205.52,0h0Z"/>
  </g>
  <g id="line_x5F_01a">
    <path d="M120.44,54.29v8s0,0,0,0c11.16,0,22.32,2.5,32.25,7.22,10.02,4.76,17.85,11.47,23.28,19.94,8.98,14,8.48,31.07-1.29,44.55-4.39,6.05-9.68,11.55-16.65,17.28-9.9,8.14-20.99,15.78-33.92,23.34-1.05.61-3.83,2.24-5.79,2.84l.99-6.38c.07-.47.64-4.7-1.66-7.92-2.24-3.12-5.91-3.94-7.38-4.15-27.56-3.9-40.46-18.42-45.69-26.73-9.04-14.36-8.11-32.42,2.39-46.02,5.76-7.47,13.32-13.32,22.47-17.39,9.65-4.3,20.38-6.57,31.02-6.57v-8M120.44,54.29c-11.7,0-23.41,2.43-34.27,7.27-10.19,4.54-18.85,11.15-25.54,19.82-12.52,16.23-13.73,37.85-2.82,55.18,11.22,17.82,30.85,27.49,51.34,30.39.71.1,1.7.47,2,.89.24.34.33,1.52.25,2.03l-1.24,8.01c-.39,2.53.86,4.97,2.46,6.27,1.35,1.1,2.89,1.55,4.52,1.55,3.63,0,7.69-2.21,11.02-4.16,12.32-7.2,23.94-15,34.97-24.07,6.88-5.66,12.88-11.65,18.04-18.76,11.67-16.1,12.31-36.79,1.55-53.56-6.42-10.01-15.63-17.64-26.58-22.85-11.23-5.34-23.45-7.99-35.69-7.99h0Z" fill="#142235"/>
    <g>
      <path d="M137.87,124.1c0,2.26-1.4,3.91-2.98,4.38-1.8.54-3.88.01-4.93-1.62l-9.43-14.73-.21,12.22c-.04,2.66-2.2,4.45-4.54,4.33-2.54-.13-4.18-2.13-4.18-4.84v-25.68c.01-1.99,1.39-3.66,2.85-4.15,2.07-.7,4.14.03,5.26,1.85l9.29,15.08.15-12.78c.03-2.52,1.88-4.3,4.08-4.41,2.45-.11,4.62,1.7,4.62,4.43v25.93Z" fill="#142235"/>
      <path d="M151.03,115.58v4.36s8.56.03,8.56.03c2.57,0,4.38,1.91,4.48,4.1.12,2.58-1.77,4.61-4.49,4.61h-12.62c-2.55,0-4.71-1.68-4.71-4.41v-26.05c0-2.73,2.07-4.54,4.72-4.54l12.62.02c2.6,0,4.41,1.9,4.49,4.21.09,2.43-1.76,4.52-4.48,4.54l-8.58.05.02,4.3,8.54.03c2.58,0,4.39,1.85,4.49,4.16.11,2.45-1.78,4.57-4.47,4.57h-8.58Z" fill="#142235"/>
      <path d="M89.67,128.68h-12.89c-2.47.01-4.54-1.75-4.54-4.37v-26.13c0-2.61,1.96-4.38,4.31-4.43,2.05-.04,4.39,1.61,4.4,4.14l.07,22.07h8.4c2.58,0,4.54,1.76,4.66,4.18.11,2.23-1.59,4.55-4.41,4.55Z" fill="#142235"/>
      <path d="M107.24,124.09c0,2.77-2,4.45-4.1,4.57-2.38.14-4.65-1.69-4.65-4.34v-26.14c0-2.51,1.99-4.38,4.17-4.44,2.37-.07,4.56,1.72,4.56,4.43v25.92Z" fill="#142235"/>
    </g>
  </g>
</svg>