<svg xmlns="http://www.w3.org/2000/svg" viewBox="0 0 460 111.82"><path fill="#fff" d="m139.7 83.93-16.94-17.16-16.94 17.16 5.86 5.78 5.59-5.67v16.81H22.43v-8.9H11.45v19.87h116.8V84.04l5.59 5.67zM59.83 57.92c0 2.85-2.32 5.16-5.17 5.16s-5.16-2.31-5.16-5.16 2.31-5.17 5.16-5.17 5.17 2.31 5.17 5.17M90.81 57.92c0 2.85-2.32 5.16-5.17 5.16s-5.16-2.31-5.16-5.16 2.31-5.17 5.16-5.17 5.17 2.31 5.17 5.17"/><path fill="#fff" d="M69.85 81.76c-5.06 0-9.79-2.25-12.97-6.18l5.33-4.32c1.88 2.31 4.67 3.64 7.65 3.64s5.77-1.33 7.66-3.65l5.32 4.33a16.66 16.66 0 0 1-12.97 6.17ZM69.85 13.19l30.31 20.18c.86-3.7 2.6-7.07 4.99-9.86L69.85 0l-58.4 38.89v29.9l-5.59-5.67L0 68.9l16.94 17.16L33.88 68.9l-5.86-5.78-5.59 5.67V44.77z"/><path fill="#fff" d="M122.76 13.82c-13.68 0-24.78 11.1-24.78 24.78s11.1 24.79 24.78 24.79 24.79-11.1 24.79-24.79-11.1-24.78-24.79-24.78m14.68 23.61v5.41h-9.56l-.88 1.45h10.44v5.41h-11.01v6.71h-7.66V49.7h-10.78v-5.41h10.25l-.88-1.45h-9.37v-5.41h6.13l-7.35-12.19h8.8l6.55 12.19h1.18l6.55-12.19h8.92l-7.54 12.19zM210.5 101.67h-6.77l-1.76 3.84h-2.57l7.83-16.81 7.55 16.81h-2.61l-1.66-3.84Zm-.97-2.24-2.34-5.38-2.46 5.38zM220.19 88.21v10.55l3.25-3.23h3.09l-4.33 4.19 4.65 5.79h-2.99l-3.3-4.21-.37.37v3.84h-2.31v-17.3zM229.55 91.39c0-.4.14-.75.44-1.05.29-.29.64-.44 1.05-.44s.77.15 1.07.44c.29.29.44.64.44 1.06s-.15.77-.44 1.06-.64.44-1.06.44-.77-.15-1.06-.44-.44-.65-.44-1.07m2.65 4.15v9.98h-2.3v-9.98zM239.84 103.66l-4.49-8.12h2.67l3.05 5.74 2.84-5.74h2.6l-7.94 15.4h-2.63l3.89-7.28ZM256.5 95.54h2.31v9.98h-2.31v-1.05c-.95.89-1.97 1.33-3.06 1.33-1.38 0-2.52-.5-3.42-1.49-.89-1.02-1.34-2.29-1.34-3.81s.45-2.74 1.34-3.74 2.02-1.5 3.36-1.5c1.16 0 2.2.48 3.13 1.43v-1.16Zm-5.47 4.95c0 .96.26 1.73.77 2.33.53.61 1.19.91 1.99.91.85 0 1.55-.3 2.07-.88.53-.61.79-1.38.79-2.32s-.26-1.71-.79-2.31c-.52-.59-1.21-.89-2.05-.89-.79 0-1.46.3-1.99.9-.53.61-.79 1.36-.79 2.25ZM274.16 96.01l6.16-6.31h3.19l-7.15 7.16 7.19 8.65h-3.2l-5.69-7.04-.49.49v6.54h-2.39V89.69h2.39V96ZM293.64 95.54h2.32v9.98h-2.32v-1.05c-.95.89-1.97 1.33-3.06 1.33-1.38 0-2.52-.5-3.42-1.49-.9-1.02-1.34-2.29-1.34-3.81s.45-2.74 1.34-3.74q1.335-1.5 3.36-1.5c1.16 0 2.2.48 3.12 1.43v-1.16Zm-5.47 4.95c0 .96.26 1.73.77 2.33.53.61 1.19.91 1.99.91.85 0 1.54-.3 2.07-.88.53-.61.79-1.38.79-2.32s-.26-1.71-.79-2.31c-.53-.59-1.21-.89-2.05-.89-.79 0-1.45.3-1.99.9-.53.61-.79 1.36-.79 2.25ZM300.09 91.39c0-.4.15-.75.44-1.05.29-.29.65-.44 1.06-.44s.77.15 1.07.44c.29.29.44.64.44 1.06s-.14.77-.44 1.06c-.29.29-.64.44-1.06.44s-.77-.15-1.07-.44c-.29-.29-.44-.65-.44-1.07m2.65 4.15v9.98h-2.3v-9.98zM309.6 97.69v7.83h-2.3v-7.83h-.98v-2.15h.98v-3.66h2.3v3.66h1.79v2.15zM314.07 100.45c0-1.44.51-2.67 1.54-3.68s2.29-1.52 3.77-1.52 2.75.51 3.79 1.53c1.03 1.02 1.54 2.27 1.54 3.75s-.52 2.75-1.55 3.76c-1.04 1-2.31 1.5-3.82 1.5s-2.75-.51-3.76-1.54c-1.01-1.01-1.51-2.28-1.51-3.81Zm2.35.04c0 1 .26 1.78.8 2.37s1.27.88 2.16.88 1.62-.29 2.16-.87.81-1.36.81-2.33-.27-1.74-.81-2.33-1.27-.88-2.16-.88-1.59.29-2.14.88-.82 1.35-.82 2.27ZM328.72 95.54h2.31v.89c.42-.44.8-.75 1.12-.91.34-.17.73-.26 1.19-.26.61 0 1.24.2 1.9.6l-1.05 2.11c-.44-.31-.87-.47-1.28-.47-1.26 0-1.88.95-1.88 2.85v5.17h-2.31zM337.79 91.39c0-.4.15-.75.44-1.05.29-.29.64-.44 1.05-.44s.77.15 1.06.44.44.64.44 1.06-.15.77-.44 1.06-.64.44-1.05.44-.77-.15-1.07-.44c-.29-.29-.44-.65-.44-1.07Zm2.65 4.15v9.98h-2.31v-9.98zM353.42 105.51V89.7h2.37c1.06 0 1.9.08 2.53.25.64.17 1.17.44 1.61.83.45.4.8.91 1.06 1.5.27.61.4 1.22.4 1.84 0 1.13-.43 2.09-1.3 2.88.84.29 1.5.79 1.98 1.51.49.71.74 1.54.74 2.48 0 1.24-.43 2.28-1.31 3.13-.53.53-1.12.89-1.77 1.1q-1.08.3-2.7.3h-3.61Zm2.38-9.02h.75c.89 0 1.54-.2 1.95-.59s.62-.97.62-1.74-.21-1.31-.63-1.7c-.43-.39-1.04-.58-1.84-.58h-.84v4.6Zm0 6.78h1.47c1.08 0 1.87-.21 2.38-.64.54-.46.8-1.04.8-1.74s-.25-1.26-.77-1.72q-.75-.69-2.67-.69h-1.21v4.78ZM373.78 95.54h2.31v9.98h-2.31v-1.05c-.95.89-1.97 1.33-3.06 1.33-1.38 0-2.52-.5-3.42-1.49-.89-1.02-1.34-2.29-1.34-3.81s.45-2.74 1.34-3.74q1.35-1.5 3.36-1.5c1.16 0 2.2.48 3.12 1.43v-1.16Zm-5.47 4.95c0 .96.25 1.73.77 2.33.53.61 1.19.91 1.99.91.85 0 1.54-.3 2.07-.88.53-.61.79-1.38.79-2.32s-.26-1.71-.79-2.31c-.52-.59-1.21-.89-2.05-.89-.79 0-1.45.3-1.99.9-.52.61-.79 1.36-.79 2.25ZM380.58 95.54h2.32v.92c.8-.8 1.71-1.2 2.72-1.2 1.16 0 2.06.37 2.71 1.1.56.62.84 1.63.84 3.04v6.12h-2.32v-5.57c0-.98-.14-1.66-.41-2.03-.27-.38-.75-.57-1.45-.57-.76 0-1.31.25-1.63.75-.31.5-.47 1.37-.47 2.61v4.81h-2.32v-9.98ZM395.96 88.21v10.55l3.25-3.23h3.09l-4.33 4.19 4.65 5.79h-2.99l-3.3-4.21-.37.37v3.84h-2.31v-17.3zM154.93 78.62q-.885 0-1.5-.63c-.41-.42-.61-.92-.61-1.48s.21-1.06.61-1.48c.41-.42.91-.64 1.5-.64h11.38c.23 0 .35-.11.35-.35v-5.38c0-.2-.12-.31-.35-.31h-7.88c-.56 0-1.05-.2-1.44-.6-.4-.39-.59-.88-.59-1.44s.2-1.05.59-1.46c.4-.41.88-.61 1.44-.61h21.72c.56 0 1.05.21 1.46.61.41.41.62.9.62 1.46s-.21 1.05-.62 1.44c-.41.4-.9.6-1.46.6h-7.92c-.24 0-.35.11-.35.31v5.38c0 .23.11.35.35.35h11.38c.59 0 1.09.21 1.5.64.41.42.61.92.61 1.48s-.2 1.06-.61 1.48q-.615.63-1.5.63zm.69-14.65c-.56.15-1.11.08-1.64-.23-.52-.31-.88-.76-1.06-1.34-.18-.54-.12-1.06.17-1.56s.72-.81 1.29-.94c2.92-.74 5.07-1.77 6.46-3.08 1.38-1.31 2.1-2.94 2.15-4.88 0-.2-.12-.31-.35-.31h-4.38c-.23 0-.35.12-.35.35v2.35c0 .59-.22 1.1-.65 1.54-.44.44-.95.65-1.54.65h-.62c-.59 0-1.1-.22-1.54-.65-.43-.44-.65-.95-.65-1.54v-4.62c0-.59.22-1.1.65-1.54s.95-.66 1.54-.66h11.19c.23 0 .35-.1.35-.31v-1.15c0-.59.21-1.1.63-1.54.43-.44.93-.66 1.52-.66h.92c.59 0 1.09.22 1.52.66s.64.95.64 1.54v1.15c0 .21.11.31.35.31h11.19c.59 0 1.1.22 1.54.66s.65.95.65 1.54v2.61c0 .59-.21 1.1-.65 1.54s-.95.65-1.54.65h-.62c-.59 0-1.1-.22-1.54-.65-.44-.44-.65-.95-.65-1.54v-.35c0-.23-.12-.35-.35-.35h-4.27c-.2 0-.31.12-.31.35v5.3c0 .62.05.97.15 1.06s.5.15 1.19.17c.1 0 .28 0 .54.02.26.01.44.02.54.02s.28 0 .52-.02c.24-.01.43-.02.55-.02.46-.03.78-.04.96-.06.18-.01.35-.06.52-.13q.255-.12.36-.39.93-2.07 2.46-1.92l.54.08c.62.08 1.11.35 1.5.81s.54 1 .46 1.62c-.08.74-.2 1.33-.37 1.77-.17.43-.37.8-.62 1.1q-.36.45-1.23.63c-.58.13-1.16.21-1.75.25s-1.48.07-2.69.1c-.21 0-.5 0-.89.02-.39.01-.68.02-.89.02s-.5 0-.88-.02c-.38-.01-.68-.02-.89-.02-2.28-.03-3.71-.22-4.27-.58q-.84-.54-.84-2.46v-7.34c0-.23-.12-.35-.35-.35h-2.04c-.23 0-.35.12-.35.35-.43 6-4.55 10-12.34 12ZM193.8 60.74c-.56 0-1.05-.2-1.44-.61-.4-.41-.6-.9-.6-1.46s.2-1.04.6-1.44.89-.6 1.48-.6c3.21 0 8.09-.08 14.65-.23.21 0 .28-.12.23-.35-.28-.87-.51-1.73-.69-2.57-.05-.21-.16-.31-.34-.31-4.57.13-8.63.19-12.19.19-.56 0-1.04-.19-1.44-.58s-.6-.87-.6-1.46.2-1.04.6-1.44c.39-.4.88-.6 1.44-.6 3.36 0 7.18-.06 11.46-.19.23 0 .32-.12.27-.35l-.11-1.39c-.05-.59.12-1.1.52-1.54.4-.43.9-.68 1.52-.73l.54-.04c.59-.02 1.11.16 1.56.56s.7.91.75 1.52c.03.38.09.87.2 1.46.05.21.18.31.38.31 1.59-.05 3.97-.15 7.15-.31.56-.03 1.05.15 1.46.54.41.38.63.86.65 1.42.03.59-.16 1.09-.56 1.5s-.88.63-1.44.65c-1.46.08-3.66.17-6.58.27-.21 0-.28.12-.23.35.44 1.62.67 2.49.7 2.62q.03.27.42.27c3-.1 5.2-.19 6.61-.27.56-.03 1.05.15 1.46.54.41.38.63.86.66 1.42.02.56-.16 1.06-.54 1.48s-.86.65-1.42.67c-1.13.05-2.84.13-5.15.23-.23 0-.31.09-.23.27.69 1.41 1.42 2.74 2.19 4 .31.49.38 1.02.23 1.6s-.49.99-1 1.25l-1.04.58c-1.23.67-2.54.73-3.92.2-2.25-.85-4.43-1.27-6.54-1.27s-3.78.25-4.73.75-1.42 1.25-1.42 2.25c0 1.36.7 2.36 2.11 3s3.86.96 7.34.96c2.1 0 4.42-.15 6.96-.46q.885-.12 1.59.42c.47.36.75.82.83 1.38.08.59-.07 1.12-.44 1.6s-.84.75-1.4.83c-2.54.31-5.05.46-7.54.46q-14.73 0-14.73-8.19c0-2.15.96-3.86 2.88-5.12 1.92-1.25 4.77-1.88 8.53-1.88 2.1 0 4.19.34 6.27 1h.08v-.11c-.43-.85-.9-1.86-1.38-3.04-.08-.18-.23-.27-.46-.27-6.33.18-11.72.27-16.15.27ZM230.6 54.7c-.59 0-1.1-.22-1.54-.65-.44-.44-.65-.95-.65-1.54v-3.69c0-.59.21-1.1.65-1.54s.95-.65 1.54-.65h11.84c.23 0 .35-.12.35-.35v-.61c0-.59.21-1.1.63-1.54s.93-.66 1.52-.66h.92c.59 0 1.1.22 1.52.66.42.43.64.95.64 1.54v.61c0 .23.11.35.34.35h11.85c.59 0 1.1.22 1.54.65.44.44.66.95.66 1.54v3.69c0 .59-.22 1.1-.66 1.54s-.95.65-1.54.65h-.84c-.21 0-.33.09-.39.27-.12.43-.37.79-.73 1.07q-.54.42-1.23.42h-4.62c-.2 0-.28.09-.23.27.49 2 1.11 3.87 1.88 5.61.08.18.19.19.35.04.59-.57 1.47-1.51 2.65-2.85.41-.46.92-.73 1.52-.81s1.15.06 1.63.42c.49.36.77.83.86 1.42s-.06 1.12-.44 1.58c-1.36 1.64-2.69 3.06-4 4.27-.21.15-.23.32-.08.5 1.51 2.26 3.26 4.28 5.23 6.07.44.41.68.91.75 1.5.06.59-.08 1.13-.44 1.62l-.5.62q-.54.735-1.44.84c-.6.08-1.13-.09-1.59-.5-2.69-2.38-5.05-5.4-7.06-9.05s-3.39-7.4-4.13-11.25c-.05-.21-.18-.31-.38-.31h-1.62c-.21 0-.4.06-.58.19-.1.08-.26.2-.46.37s-.36.29-.46.36c-.18.13-.19.27-.04.42 2.08 1.9 3.69 4.11 4.84 6.63s1.73 5.08 1.73 7.67-.36 4.54-1.09 5.55-1.93 1.52-3.6 1.52c-.98 0-2.35-.04-4.11-.11q-.885-.045-1.5-.69c-.41-.44-.63-.95-.65-1.54-.02-.56.17-1.05.6-1.44.42-.4.93-.58 1.52-.56 1.54.05 2.35.08 2.42.08.59 0 .96-.15 1.11-.46s.23-1.09.23-2.34c0-.64-.01-1.13-.04-1.46 0-.08-.03-.13-.09-.17s-.12-.03-.17.02c-3.28 2.67-7.54 5.06-12.77 7.19-.56.23-1.12.23-1.67-.02-.55-.24-.95-.65-1.21-1.21l-.04-.15c-.23-.54-.24-1.08-.02-1.61q.33-.81 1.17-1.08c5.54-2 10.05-4.36 13.54-7.07.18-.13.23-.29.15-.5l-.58-1.27c-.1-.18-.26-.19-.46-.04-2.9 2.08-6.47 3.96-10.73 5.65-.56.21-1.12.2-1.67-.02q-.825-.33-1.17-1.17c-.23-.51-.22-1.02.02-1.54q.36-.765 1.17-1.08c3.89-1.31 7.3-2.89 10.22-4.73.15-.13.17-.28.04-.46-.23-.23-.62-.6-1.15-1.12-.15-.13-.33-.14-.53-.04a53.4 53.4 0 0 1-6.73 3.15c-.54.21-1.08.2-1.63-.02s-.94-.6-1.17-1.13c-.23-.49-.22-.98.02-1.48.25-.5.62-.84 1.13-1.02q4.65-1.5 7.89-3.15c0-.05-.03-.09-.08-.12h-4.96q-.69 0-1.23-.42c-.36-.28-.6-.64-.73-1.07q-.075-.27-.39-.27h-.85Zm3.15-4.08c-.23 0-.35.12-.35.35v1.11c0 .21.12.31.35.31h23.3c.23 0 .35-.1.35-.31v-1.11c0-.23-.12-.35-.35-.35zM270.97 79.35c-.59.16-1.16.1-1.71-.15-.55-.26-.97-.67-1.25-1.23q-.345-.765 0-1.5c.23-.49.6-.8 1.12-.92 2.25-.59 4.63-1.37 7.11-2.34q.03-.075 0-.12h-4c-.59 0-1.09-.21-1.52-.63-.42-.42-.63-.93-.63-1.52V57.86c0-.59.21-1.1.63-1.54.42-.43.93-.65 1.52-.65h25.15c.59 0 1.1.22 1.52.65.42.44.63.95.63 1.54v13.08c0 .59-.21 1.1-.63 1.52s-.93.63-1.52.63h-3.42s-.04.02-.04.06.01.06.04.06c2.56.82 4.75 1.6 6.58 2.34.54.23.9.62 1.08 1.15.18.54.11 1.06-.19 1.58-.33.51-.8.86-1.4 1.04-.61.18-1.19.14-1.75-.12q-3.69-1.65-8.61-3.27a1.54 1.54 0 0 1-1.02-.92c-.19-.46-.19-.93.02-1.39q.12-.225.15-.27.195-.27-.15-.27h-7.62c-.08 0-.13.04-.17.12s-.03.14.02.19c.23.49.28.98.14 1.46-.14.49-.46.86-.94 1.11-2.39 1.23-5.42 2.36-9.11 3.38Zm27.96-33.96c.59 0 1.1.22 1.52.66.42.43.64.95.64 1.54v4.62c0 .59-.21 1.09-.64 1.52-.42.42-.93.63-1.52.63H270.7c-.59 0-1.09-.21-1.52-.63-.42-.42-.63-.93-.63-1.52v-4.62c0-.59.21-1.1.63-1.54s.93-.66 1.52-.66zM277.9 50.9v-1.5c0-.23-.12-.35-.35-.35h-3.96c-.21 0-.31.12-.31.35v1.5c0 .23.1.34.31.34h3.96c.23 0 .35-.11.35-.34m-2.62 8.57v.89c0 .21.1.31.31.31h18.46c.21 0 .31-.1.31-.31v-.89c0-.23-.1-.34-.31-.34h-18.46c-.21 0-.31.11-.31.34m0 4.53v.96c0 .2.1.31.31.31h18.46c.21 0 .31-.1.31-.31V64c0-.23-.1-.35-.31-.35h-18.46c-.21 0-.31.12-.31.35m0 5.58c0 .21.1.31.31.31h18.46c.21 0 .31-.1.31-.31v-.96c0-.23-.1-.35-.31-.35h-18.46c-.21 0-.31.12-.31.35zm12.11-18.68v-1.5c0-.23-.12-.35-.35-.35h-4.46c-.23 0-.34.12-.34.35v1.5c0 .23.12.34.34.34h4.46c.23 0 .35-.11.35-.34m8.96 0v-1.5c0-.23-.11-.35-.34-.35h-3.96c-.21 0-.31.12-.31.35v1.5c0 .23.1.34.31.34h3.96c.23 0 .34-.11.34-.34M308.08 75.31c-.56.08-1.07-.07-1.54-.44-.46-.37-.72-.85-.77-1.44s.11-1.11.48-1.58c.37-.46.84-.73 1.4-.81h.16c.23-.05.35-.17.35-.35V50.27q0-.27-.27-.27c-.52 0-.94-.17-1.29-.52-.35-.34-.52-.76-.52-1.25v-.35c0-.57.21-1.06.64-1.48.42-.43.92-.64 1.48-.64h15.65c.56 0 1.04.19 1.44.58.39.38.62.84.67 1.38 0 .08.03.14.1.18.06.04.12.03.17-.02.31-.16.64-.23 1-.23h11.54c.59 0 1.1.21 1.53.64.44.42.66.93.66 1.52V52c-.93 6.49-2.72 12.02-5.38 16.61-.1.15-.08.33.08.54 1.44 1.77 3.01 3.27 4.73 4.5.51.36.84.83.98 1.42s.07 1.15-.21 1.69l-.27.46c-.28.51-.7.84-1.27.98-.56.14-1.08.04-1.54-.29a33 33 0 0 1-5.23-4.85c-.13-.13-.26-.11-.39.04a30.3 30.3 0 0 1-4.88 4.73c-.49.36-1.03.49-1.61.38-.59-.1-1.05-.41-1.39-.92l-.38-.58q-.465-.765-.27-1.65c.13-.59.43-1.06.92-1.42q2.46-1.92 4.65-4.77c.1-.15.12-.32.04-.5-1.98-3.46-3.49-7.53-4.54-12.19-.13-.59-.02-1.15.31-1.69s.8-.87 1.39-1l.35-.08c.56-.13 1.09-.03 1.6.29.49.32.81.78.94 1.37.66 3.2 1.59 6.09 2.77 8.65.02.05.07.08.13.08s.11-.03.14-.08c1.51-3.21 2.6-7.01 3.27-11.42.05-.21-.04-.31-.27-.31h-8.38c-.57 0-1.05-.19-1.46-.58a2.14 2.14 0 0 1-.69-1.42c0-.18-.09-.24-.27-.19-.31.13-.59.19-.84.19-.21 0-.31.1-.31.31v27.19c0 .59-.22 1.1-.65 1.54-.44.44-.95.65-1.54.65h-.58c-.59 0-1.1-.22-1.52-.65s-.64-.95-.64-1.54v-3.38c0-.23-.12-.32-.35-.27-3.75.61-7.18 1.1-10.3 1.46Zm4.81-24.96v3.38c0 .23.12.35.34.35h5.15c.23 0 .35-.12.35-.35v-3.38c0-.23-.12-.35-.35-.35h-5.15c-.23 0-.34.11-.34.35m0 7.89v3.5c0 .23.12.35.34.35h5.15c.23 0 .35-.11.35-.35v-3.5c0-.21-.12-.31-.35-.31h-5.15c-.23 0-.34.1-.34.31m0 8v3.81c0 .26.12.36.34.31.67-.1 1.65-.26 2.97-.46 1.31-.21 2.04-.32 2.19-.35.23-.05.35-.18.35-.39v-2.92c0-.21-.12-.31-.35-.31h-5.15c-.23 0-.34.1-.34.31ZM347.45 76c-.54-.25-.9-.67-1.09-1.23-.19-.57-.15-1.1.14-1.62 3.56-6.94 5.79-14.37 6.69-22.26.05-.59.31-1.09.77-1.48s1-.58 1.61-.56l1.04.04c.59.05 1.08.31 1.48.77s.57.99.52 1.58c-.82 8.62-3.19 16.69-7.12 24.23-.29.54-.72.9-1.31 1.09s-1.17.16-1.73-.09l-1-.46Zm20-23.99c-.13-.23-.54-.99-1.23-2.27q-.42-.765-.15-1.62c.27-.855.54-.98 1.08-1.27h.04c.54-.28 1.1-.33 1.69-.15s1.03.54 1.31 1.08c.28.51.7 1.31 1.27 2.38.25.54.28 1.09.08 1.65-.2.57-.58.98-1.11 1.23-.57.26-1.13.28-1.69.08s-.99-.58-1.27-1.12Zm4.23 4.34a2.16 2.16 0 0 1 1.69.15c.54.28.91.72 1.11 1.31 1.79 5.28 3.4 10.77 4.81 16.46.13.56.03 1.1-.29 1.6s-.78.81-1.36.94l-1.23.23c-.59.13-1.14.03-1.65-.29s-.83-.77-.96-1.37c-1.41-5.95-2.9-11.31-4.46-16.07-.18-.56-.14-1.11.14-1.63.27-.53.7-.88 1.28-1.06l.93-.27Zm4.89-4.49c-.54.26-1.09.29-1.67.09-.58-.19-1.01-.56-1.29-1.1-.13-.26-.33-.65-.61-1.19s-.5-.93-.66-1.19c-.28-.51-.34-1.06-.17-1.65s.52-1.01 1.06-1.27l.11-.04c.54-.28 1.1-.34 1.69-.18.59.17 1.03.52 1.31 1.06.85 1.62 1.28 2.45 1.31 2.5.28.54.32 1.09.13 1.65a2 2 0 0 1-1.1 1.23l-.12.08ZM387.45 52.74c-.54-.26-.9-.67-1.07-1.23q-.27-.84.15-1.62l.39-.77q.42-.81 1.29-1.08t1.71.12c2.54 1.23 5.22 2.61 8.03 4.15.51.28.85.72 1.02 1.31q.255.885-.18 1.65l-.42.77c-.28.52-.72.85-1.31 1.02s-1.14.11-1.65-.17c-3-1.64-5.65-3.03-7.96-4.15m26.76-1.23c.59.13 1.05.45 1.39.96.33.51.43 1.06.31 1.65-1.51 6.59-4.47 11.74-8.86 15.46-4.4 3.72-10.32 6.05-17.78 7a2.13 2.13 0 0 1-1.64-.44 2.3 2.3 0 0 1-.86-1.48l-.08-.69c-.1-.59.02-1.12.38-1.6.36-.47.84-.75 1.42-.83 6.31-.87 11.27-2.79 14.88-5.77 3.61-2.97 6.14-7.21 7.58-12.73q.225-.885.99-1.38c.52-.33 1.07-.44 1.66-.31zM421.63 63.81l-.35-.27c-.43-.38-.66-.88-.69-1.48q-.045-.9.54-1.56c3.2-3.67 5.31-7.86 6.31-12.57q.195-.915.9-1.5c.47-.38 1.02-.56 1.63-.54l.66.04c.59.05 1.07.31 1.46.77.38.46.52.97.42 1.54-.02.26-.09.58-.19.96-.05.21.04.31.27.31h14.42c.62 0 1.14.21 1.58.64.43.42.64.93.62 1.52-.18 8.15-2.14 14.26-5.88 18.32-3.75 4.06-9.63 6.57-17.65 7.52-.62.08-1.17-.08-1.67-.46-.5-.39-.8-.88-.9-1.5l-.08-.31q-.15-.84.39-1.56c.36-.47.83-.75 1.42-.83 6.33-.84 10.94-2.66 13.82-5.44 2.89-2.78 4.56-7.11 5.02-12.98 0-.21-.1-.31-.31-.31h-12.15c-.23 0-.38.1-.46.31-1.36 3.36-3.34 6.45-5.96 9.27-.41.46-.92.7-1.54.71a2.23 2.23 0 0 1-1.61-.6ZM458.25 68.99c1.18 1.18 1.63 2.56 1.63 4.01 0 1.66-.61 2.93-1.5 3.87-.78.83-2.1 1.68-4.05 1.68-1.44 0-2.89-.51-3.98-1.62-1.09-1.09-1.57-2.53-1.57-3.97 0-1.74.7-3.13 1.71-4.08 1.05-1.01 2.43-1.49 3.84-1.49 1.1 0 2.61.29 3.92 1.58Zm-6.98.69c-.67.67-1.36 1.74-1.36 3.28 0 1.37.58 2.59 1.31 3.33.74.74 1.9 1.28 3.12 1.28s2.26-.48 3.05-1.26c.53-.51 1.38-1.58 1.38-3.28s-.78-2.77-1.38-3.36a4.22 4.22 0 0 0-3.05-1.26c-1.13 0-2.17.37-3.07 1.28Zm3.08.21c.43 0 1.07.03 1.55.51.26.26.48.7.48 1.33 0 .35-.08.8-.41 1.15-.24.26-.61.43-1.02.5l1.94 2.49h-1.42l-1.77-2.29v2.29h-1.22v-5.98h1.89Zm-.67 2.7h.48c.42 0 .64-.14.74-.24a.84.84 0 0 0 .23-.61c0-.32-.11-.51-.23-.61-.21-.19-.53-.19-.69-.19h-.53z"/><path fill="#fff" d="M454.34 78.67c-1.57 0-3.01-.59-4.06-1.65-1.03-1.03-1.6-2.47-1.6-4.05s.62-3.11 1.75-4.16c1.02-.98 2.41-1.52 3.91-1.52 1.08 0 2.65.28 4 1.62 1.12 1.12 1.67 2.46 1.67 4.09 0 1.55-.52 2.87-1.53 3.95-.74.78-2.05 1.71-4.13 1.71Zm0-11.15c-1.44 0-2.78.52-3.76 1.46-1.08 1.01-1.67 2.43-1.67 3.99s.55 2.9 1.53 3.88c1 1.02 2.39 1.58 3.9 1.58 2 0 3.26-.89 3.96-1.64.98-1.03 1.47-2.31 1.47-3.79 0-1.57-.52-2.86-1.6-3.93-1.3-1.28-2.8-1.55-3.84-1.55Zm0 10.16c-1.16 0-2.39-.5-3.2-1.31-.84-.84-1.34-2.11-1.34-3.41 0-1.62.76-2.72 1.39-3.36.87-.88 1.9-1.31 3.15-1.31s2.29.45 3.13 1.3c.64.64 1.41 1.76 1.41 3.44s-.88 2.85-1.41 3.36a4.42 4.42 0 0 1-3.13 1.29m0-9.16c-1.19 0-2.16.41-2.99 1.25-.6.61-1.32 1.65-1.32 3.2 0 1.23.48 2.45 1.28 3.25.77.77 1.93 1.25 3.04 1.25s2.17-.44 2.97-1.23c.61-.59 1.34-1.63 1.34-3.2s-.73-2.67-1.34-3.28c-.81-.8-1.83-1.23-2.97-1.23Zm2.78 7.46h-1.71l-1.61-2.07v2.07h-1.44v-6.21h2c.54 0 1.15.06 1.63.55.33.32.51.84.51 1.41 0 .5-.15.92-.45 1.23-.22.23-.54.4-.9.49zm-1.61-.23h1.13l-1.91-2.46.19-.03c.4-.06.74-.23.96-.46.25-.27.38-.63.38-1.07 0-.51-.16-.96-.45-1.25-.42-.42-.98-.48-1.47-.48h-1.77v5.75h.99v-2.51l1.94 2.51Zm-1.35-3.05h-.59v-1.87h.64c.17 0 .52 0 .76.22.1.08.26.28.26.69 0 .29-.09.52-.26.69-.1.1-.34.27-.82.27Zm-.36-.22h.37c.41 0 .59-.14.66-.21.13-.13.19-.3.19-.53 0-.33-.13-.47-.19-.52-.18-.17-.46-.17-.61-.17h-.41v1.42Z"/></svg>