<?xml version="1.0" encoding="UTF-8"?>
<svg id="_レイヤー_1" data-name="レイヤー_1" xmlns="http://www.w3.org/2000/svg" version="1.1" viewBox="0 0 294.4 251.76">
  <!-- Generator: Adobe Illustrator 30.2.1, SVG Export Plug-In . SVG Version: 2.1.1 Build 1)  -->
  <path d="M167.25,194.29h-18.21c-2.21,0-4-1.79-4-4s1.79-4,4-4h18.21c2.21,0,4,1.79,4,4s-1.79,4-4,4Z" fill="#142235"/>
  <path d="M174.86,112.42c-.82,0-1.63-.25-2.33-.75l-18.87-13.49c-1.8-1.28-2.21-3.78-.93-5.58,1.29-1.8,3.78-2.21,5.58-.93l16.54,11.83,87.84-62.8c1.8-1.28,4.29-.87,5.58.93,1.29,1.8.87,4.3-.93,5.58l-90.17,64.47c-.7.5-1.51.75-2.33.75Z" fill="#142235"/>
  <path d="M136.67,74.29c8.25,0,15,6.75,15,15v86c0,8.25-6.75,15-15,15H22.67c-8.25,0-15-6.75-15-15v-86c0-8.25,6.75-15,15-15h114M136.67,66.29H22.67c-12.68,0-23,10.32-23,23v86c0,12.68,10.32,23,23,23h114c12.68,0,23-10.32,23-23v-86c0-12.68-10.32-23-23-23h0Z" fill="#a48a57"/>
  <path d="M79.67,7.56c23.65,0,43,19.35,43,43v15.73h-10v-15.73c0-18.15-14.85-33-33-33h0c-18.15,0-33,14.85-33,33v15.73h-10v-15.73c0-23.65,19.35-43,43-43h0M79.67-.44C51.55-.44,28.67,22.43,28.67,50.56v15.73c0,4.42,3.58,8,8,8h10c4.42,0,8-3.58,8-8v-15.73c0-13.78,11.21-25,25-25s25,11.21,25,25v15.73c0,4.42,3.58,8,8,8h10c4.42,0,8-3.58,8-8v-15.73C130.67,22.43,107.79-.44,79.67-.44h0Z" fill="#a48a57"/>
  <path d="M267.47,120.5c-2.21,0-4-1.79-4-4V46.03c0-.54-.46-1-1-1h-120c-2.21,0-4-1.79-4-4s1.79-4,4-4h120c4.96,0,9,4.04,9,9v70.46c0,2.21-1.79,4-4,4Z" fill="#142235"/>
  <path d="M148.47,41.03" fill="none" stroke="#a48a57" stroke-linecap="round" stroke-linejoin="round" stroke-width="8"/>
  <path d="M235.85,251.31c-.63,0-1.26-.15-1.84-.45-21.34-11.06-36.99-23.95-46.51-38.29-8.58-12.93-9.86-23.63-9.86-28.85v-43.67c0-1.93,1.38-3.59,3.28-3.94,31.33-5.7,45.82-13.12,52.45-18.35,1.45-1.14,3.5-1.14,4.95,0,6.63,5.23,21.12,12.65,52.45,18.35,1.9.35,3.28,2,3.28,3.94v43.67c0,8.9-4.07,40.03-56.37,67.15-.58.3-1.21.45-1.84.45ZM185.64,143.37v40.35c0,7.66,3.66,34.31,50.21,59.08,46.55-24.77,50.21-51.42,50.21-59.08v-40.35c-22.84-4.4-39.7-10.27-50.21-17.5-10.51,7.23-27.37,13.11-50.21,17.5Z" fill="#142235"/>
  <path d="M79.67,116.5c4.42,0,8,3.58,8,8,0,4.12-3.12,7.51-7.13,7.95l1.75,20.22h-5.25l1.75-20.22c-4.01-.44-7.13-3.83-7.13-7.95,0-4.42,3.58-8,8-8M79.67,108.5c-8.82,0-16,7.18-16,16,0,5.33,2.6,10.09,6.66,13l-1.25,14.48c-.19,2.23.56,4.45,2.07,6.1s3.65,2.59,5.9,2.59h5.25c2.24,0,4.38-.94,5.9-2.59,1.52-1.65,2.27-3.86,2.07-6.1l-1.25-14.48c4.06-2.91,6.66-7.67,6.66-13,0-8.82-7.18-16-16-16h0Z" fill="#142235"/>
  <path d="M219.4,194.93c-1.38,0-2.73-.72-3.47-2-1.1-1.91-.45-4.36,1.46-5.46l32.91-19c1.91-1.11,4.36-.45,5.46,1.46,1.1,1.91.45,4.36-1.46,5.46l-32.91,19c-.63.36-1.32.54-2,.54Z" fill="#a48a57"/>
  <path d="M252.3,194.93c-.68,0-1.37-.17-2-.54l-32.91-19c-1.91-1.1-2.57-3.55-1.46-5.46,1.1-1.91,3.55-2.57,5.46-1.46l32.91,19c1.91,1.1,2.57,3.55,1.46,5.46-.74,1.28-2.08,2-3.47,2Z" fill="#a48a57"/>
  <path d="M235.85,204.43c-2.21,0-4-1.79-4-4v-38c0-2.21,1.79-4,4-4s4,1.79,4,4v38c0,2.21-1.79,4-4,4Z" fill="#a48a57"/>
</svg>