<?xml version="1.0" encoding="UTF-8"?>
<svg id="_レイヤー_1" data-name="レイヤー_1" xmlns="http://www.w3.org/2000/svg" version="1.1" viewBox="0 0 276.24 290.49">
  <!-- Generator: Adobe Illustrator 30.2.1, SVG Export Plug-In . SVG Version: 2.1.1 Build 1)  -->
  <path d="M149.12,147.23c-2.21,0-4-1.79-4-4v-31.93c0-2.21,1.79-4,4-4h22.59c2.21,0,4,1.79,4,4v18.25c0,2.21-1.79,4-4,4s-4-1.79-4-4v-14.25h-14.59v27.93c0,2.21-1.79,4-4,4Z" fill="#a48a57"/>
  <path d="M236.52,197.77h-25c-2.21,0-4-1.79-4-4v-25c0-2.21,1.79-4,4-4h25c2.21,0,4,1.79,4,4v25c0,2.21-1.79,4-4,4ZM215.52,189.77h17v-17h-17v17Z" fill="#a48a57"/>
  <path d="M189.63,225.29c-2.21,0-4-1.79-4-4v-48.52h-17v48.52c0,2.21-1.79,4-4,4s-4-1.79-4-4v-52.52c0-2.21,1.79-4,4-4h25c2.21,0,4,1.79,4,4v52.52c0,2.21-1.79,4-4,4Z" fill="#a48a57"/>
  <path d="M271.67,225.29h-110.04c-2.21,0-4-1.79-4-4s1.79-4,4-4h110.04c2.21,0,4,1.79,4,4s-1.79,4-4,4Z" fill="#142235"/>
  <path d="M260.66,223.6c-2.21,0-4-1.79-4-4v-67.71c0-2.21,1.79-4,4-4s4,1.79,4,4v67.71c0,2.21-1.79,4-4,4Z" fill="#142235"/>
  <path d="M140.49,206.27c-2.21,0-4-1.79-4-4v-50.38c0-2.21,1.79-4,4-4s4,1.79,4,4v50.38c0,2.21-1.79,4-4,4Z" fill="#142235"/>
  <path d="M271.66,163.76c-.81,0-1.62-.24-2.32-.75l-68.77-49.18-68.77,49.18c-1.8,1.29-4.3.87-5.58-.93-1.29-1.8-.87-4.3.93-5.58l71.09-50.84c1.39-1,3.26-1,4.65,0l71.09,50.84c1.8,1.29,2.21,3.78.93,5.58-.78,1.09-2.01,1.67-3.26,1.67Z" fill="#a48a57"/>
  <path d="M114.56,185.27c-51.2,0-92.86-41.66-92.86-92.86S63.35-.44,114.56-.44s92.86,41.65,92.86,92.86c0,.94-.01,1.87-.04,2.8-.07,2.21-1.94,3.94-4.12,3.88-2.21-.07-3.95-1.91-3.88-4.12.03-.85.04-1.7.04-2.56,0-46.79-38.07-84.86-84.86-84.86S29.7,45.62,29.7,92.41s38.07,84.86,84.86,84.86c2.55,0,5.12-.11,7.64-.34,2.21-.2,4.14,1.43,4.34,3.63.2,2.2-1.43,4.14-3.63,4.34-2.76.25-5.57.37-8.35.37Z" fill="#142235"/>
  <g>
    <path d="M203.41,96.41h-15c-2.21,0-4-1.79-4-4s1.79-4,4-4h15c2.21,0,4,1.79,4,4s-1.79,4-4,4Z" fill="#142235"/>
    <path d="M40.7,96.41h-15c-2.21,0-4-1.79-4-4s1.79-4,4-4h15c2.21,0,4,1.79,4,4s-1.79,4-4,4Z" fill="#142235"/>
    <path d="M114.56,185.27c-2.21,0-4-1.79-4-4v-15c0-2.21,1.79-4,4-4s4,1.79,4,4v15c0,2.21-1.79,4-4,4Z" fill="#142235"/>
    <path d="M114.56,22.56c-2.21,0-4-1.79-4-4V3.56c0-2.21,1.79-4,4-4s4,1.79,4,4v15c0,2.21-1.79,4-4,4Z" fill="#142235"/>
  </g>
  <path d="M114.56,96.41c-1.06,0-2.08-.42-2.83-1.17l-34.04-34.04c-1.56-1.56-1.56-4.09,0-5.66,1.56-1.56,4.09-1.56,5.66,0l31.11,31.11,39.93-42.86c1.51-1.62,4.04-1.71,5.65-.2,1.62,1.51,1.71,4.04.2,5.65l-42.76,45.9c-.74.79-1.77,1.25-2.86,1.27-.02,0-.05,0-.07,0Z" fill="#a48a57"/>
  <path d="M135.87,290.04c-2.19,0-4.25-.03-6.16-.05-1.64-.02-3.18-.04-4.59-.04-8.11,0-35.09-4.54-62.03-9.19-7.13-1.23-12.76-2.2-14.44-2.42-5.08-.66-34.31-.2-45.14.03-2.18.07-4.04-1.7-4.09-3.91-.05-2.21,1.7-4.04,3.91-4.08,4.05-.09,39.74-.83,46.34.03,1.84.24,7.26,1.18,14.76,2.47,18.37,3.17,52.57,9.07,60.67,9.07,1.44,0,3.02.02,4.7.04,11.29.14,28.35.37,44.72-5.76l1.67-.63c19.16-7.17,54.83-20.53,60.21-22.95,6.99-3.15,7.02-5.08,6.27-7.66-1.65-5.67-3.98-8.26-12.05-6.68-3.46.68-9.46,2.09-16.41,3.72-15.71,3.7-33.51,7.89-40.43,8.1-5.68.17-26.17-1.61-42.74-3.16-11.74-1.02-22.64-2.21-22.75-2.22-2.19-.24-3.77-2.21-3.54-4.4.23-2.19,2.19-3.77,4.38-3.56,6.29.64,14.64,1.47,23.27,2.27,13.07,1.11,23.93,1.71,26.73,1.22,2.74-1.93,6.97-5.98,5.53-9.15-1.98-4.35-5.04-5.97-14.91-7.89-10.9-2.12-34.17-9.01-43.58-12.61-12.57-4.81-23.33-5.87-31.1-3.08-10.94,3.93-25.56,11.42-30.32,14.33-5.65,3.45-10.31,3.44-15.7,3.41h-1.35c-5.92,0-23.65-.55-24.41-.57-2.21-.07-3.94-1.91-3.88-4.12s1.93-3.93,4.12-3.88c.18,0,18.36.56,24.16.56h1.38c5.02.02,7.78.03,11.5-2.24,5.01-3.06,20.35-10.92,31.79-15.03,9.74-3.5,22.08-2.44,36.66,3.13,9.79,3.74,32.69,10.38,42.25,12.23,9.33,1.81,16.78,3.88,20.67,12.44,1.71,3.76,1.52,9.02-2.83,14.21,1.94.09,3.46.13,4.44.1,6.11-.18,25.02-4.63,38.83-7.89,7.03-1.65,13.09-3.08,16.71-3.79,11.26-2.2,18.21,1.82,21.26,12.3,3.2,10.95-6.88,15.48-10.67,17.19-5.61,2.52-40.08,15.43-60.68,23.14l-1.67.63c-14.93,5.59-29.99,6.32-41.48,6.32Z" fill="#a48a57"/>
</svg>