<?xml version="1.0" encoding="UTF-8"?>
<svg id="_レイヤー_1" data-name="レイヤー_1" xmlns="http://www.w3.org/2000/svg" version="1.1" viewBox="0 0 240 240">
  <!-- Generator: Adobe Illustrator 30.2.1, SVG Export Plug-In . SVG Version: 2.1.1 Build 1)  -->
  <g>
    <path d="M34.51,3.56h170.32c17.02,0,30.84,13.82,30.84,30.84v170.32c0,17.02-13.82,30.84-30.84,30.84H34.51c-17.02,0-30.84-13.82-30.84-30.84V34.39C3.67,17.37,17.48,3.56,34.51,3.56Z" fill="#f8f9fa"/>
    <path d="M204.83,7.56c14.8,0,26.84,12.04,26.84,26.84v170.32c0,14.8-12.04,26.84-26.84,26.84H34.51c-14.8,0-26.84-12.04-26.84-26.84V34.39c0-14.8,12.04-26.84,26.84-26.84h170.32M204.83-.44H34.51C15.3-.44-.33,15.18-.33,34.39v170.32c0,19.21,15.63,34.84,34.84,34.84h170.32c19.21,0,34.84-15.63,34.84-34.84V34.39C239.67,15.18,224.04-.44,204.83-.44h0Z"/>
  </g>
  <path id="phone_x5F_01a" d="M162.42,183.67c-.46,0-.92-.02-1.38-.06-18.27-1.99-36.02-8.3-51.39-18.26-14.25-9.06-26.6-21.4-35.67-35.68-9.98-15.41-16.3-33.24-18.24-51.53-.77-8.57,5.52-16.11,14.03-16.88.46-.04.92-.06,1.38-.06h17.23c7.71-.08,14.37,5.65,15.45,13.32.69,5.25,1.97,10.38,3.81,15.3,2.12,5.63.75,12.05-3.49,16.33l-5.12,5.12c7.21,11.72,17.09,21.6,28.81,28.81l5.1-5.1c4.3-4.25,10.71-5.62,16.36-3.5,4.92,1.83,10.05,3.11,15.26,3.8,7.81,1.1,13.53,7.83,13.36,15.67v17.19c.02,4.12-1.58,8.02-4.49,10.96-2.91,2.94-6.8,4.56-10.94,4.58h-.08ZM88.49,69.19s-.05,0-.07,0h-17.27c-.22,0-.44.01-.66.03-4.11.37-7.16,4.02-6.79,8.13,1.8,16.99,7.69,33.6,17.01,47.99,8.47,13.32,19.96,24.82,33.26,33.27,14.35,9.31,30.89,15.19,47.86,17.04.17.01.4.02.63.02,2.01,0,3.88-.79,5.29-2.21,1.41-1.42,2.18-3.3,2.17-5.31v-17.25s0-.07,0-.1c.09-3.8-2.67-7.07-6.44-7.6-5.77-.76-11.5-2.19-16.98-4.23-2.74-1.03-5.84-.37-7.91,1.68l-7.28,7.28c-1.27,1.28-3.24,1.54-4.81.65-15-8.53-27.44-20.97-35.97-35.97-.89-1.56-.62-3.53.65-4.81l7.3-7.3c2.03-2.06,2.7-5.16,1.67-7.89-2.05-5.5-3.48-11.22-4.24-17.03-.52-3.65-3.7-6.4-7.41-6.4ZM156.68,109.11c-1.88,0-3.55-1.33-3.92-3.23-1.94-9.93-9.6-17.6-19.53-19.53-2.17-.42-3.58-2.52-3.16-4.69.42-2.17,2.52-3.58,4.69-3.16,13.14,2.56,23.29,12.71,25.85,25.85.42,2.17-.99,4.27-3.16,4.69-.26.05-.52.08-.77.08ZM179.66,109.06c-2.01,0-3.74-1.51-3.97-3.55-2.51-22.3-19.83-39.61-42.14-42.09-2.2-.24-3.78-2.22-3.53-4.42s2.23-3.78,4.42-3.53c26.04,2.89,46.28,23.1,49.21,49.14.25,2.2-1.33,4.17-3.53,4.42-.15.02-.3.03-.45.03Z" fill="#142235"/>
</svg>